<?xml version="1.0" standalone="no"?>
<!DOCTYPE svg PUBLIC "-//W3C//DTD SVG 20010904//EN"
 "http://www.w3.org/TR/2001/REC-SVG-20010904/DTD/svg10.dtd">
<svg version="1.0" xmlns="http://www.w3.org/2000/svg"
 width="559.000000pt" height="447.000000pt" viewBox="0 0 559.000000 447.000000"
 preserveAspectRatio="xMidYMid meet">

<g transform="translate(0.000000,447.000000) scale(0.100000,-0.100000)"
fill="#000000" stroke="none">
<path d="M2501 3470 c-18 -65 -46 -146 -62 -180 -24 -50 -29 -75 -29 -133 0
-88 22 -138 90 -201 46 -43 158 -106 187 -106 7 0 20 -11 28 -24 20 -30 9 -57
-41 -99 -87 -73 -135 -189 -136 -331 -1 -99 11 -155 48 -229 23 -44 23 -49 9
-70 -8 -12 -15 -29 -15 -39 0 -16 11 -18 95 -18 95 0 95 0 95 25 0 23 4 25 45
25 43 0 45 -1 39 -25 l-6 -25 102 0 102 0 -7 30 c-5 21 -3 31 7 34 141 41 208
115 208 231 0 21 -14 81 -30 133 -17 52 -29 101 -26 109 6 15 47 17 93 4 39
-11 73 9 73 44 0 34 -23 52 -86 66 -97 22 -167 -18 -180 -103 -5 -26 3 -67 26
-143 37 -123 35 -160 -11 -199 -42 -36 -62 -35 -48 2 6 15 13 65 16 112 10
146 -34 267 -132 364 -81 80 -74 103 45 150 141 56 228 176 218 300 -3 36 -15
82 -30 111 -14 28 -40 104 -58 170 -18 66 -36 124 -40 128 -4 5 -24 -22 -45
-60 -21 -37 -39 -70 -41 -72 -1 -1 -31 4 -66 13 -80 20 -177 20 -251 1 -32 -8
-60 -15 -62 -15 -2 0 -20 29 -40 65 -20 36 -40 67 -44 69 -4 3 -22 -48 -40
-114z m117 -242 c9 -9 15 -9 24 0 18 18 46 14 58 -8 13 -25 -9 -72 -45 -96
-22 -14 -26 -14 -49 3 -39 29 -59 69 -46 93 12 22 40 26 58 8z m378 2 c8 -8
19 -7 37 1 31 14 57 -1 57 -32 0 -21 -56 -89 -73 -89 -23 0 -77 64 -77 91 0
35 34 51 56 29z m-136 -198 c0 -5 -11 -19 -25 -32 -21 -19 -27 -21 -40 -10 -9
7 -21 22 -26 32 -9 16 -5 18 41 18 27 0 50 -4 50 -8z"/>
<path d="M1796 1718 c-3 -13 -4 -102 -3 -198 l2 -175 43 -3 42 -3 -4 98 -5 98
22 -85 c26 -102 31 -110 62 -110 17 0 26 7 30 23 3 12 14 56 25 97 l19 75 -2
-95 -2 -95 43 -3 42 -3 -2 198 -3 198 -40 0 c-45 0 -42 7 -86 -188 -12 -54
-25 -95 -29 -90 -4 4 -20 62 -35 128 -35 151 -37 155 -80 155 -28 0 -36 -4
-39 -22z"/>
<path d="M2255 1728 c-3 -8 -4 -97 -3 -198 l3 -185 80 0 80 0 3 37 c3 36 2 37
-35 40 -37 3 -38 4 -41 45 l-3 42 38 3 c35 3 38 5 38 33 0 27 -4 31 -35 35
-32 5 -35 8 -38 42 -3 36 -2 37 35 40 36 3 38 5 38 38 l0 35 -78 3 c-57 2 -79
-1 -82 -10z"/>
<path d="M2591 1722 c-30 -23 -40 -87 -37 -235 1 -95 2 -100 29 -123 41 -35
127 -34 162 1 24 23 25 28 25 173 0 183 -5 193 -96 200 -48 3 -64 0 -83 -16z
m97 -171 c3 -108 -7 -143 -34 -120 -10 8 -14 39 -14 114 0 105 3 118 30 113
12 -3 16 -23 18 -107z"/>
<path d="M2915 1718 c-3 -13 -4 -102 -3 -198 l3 -175 48 -3 c42 -3 47 -1 47
17 l0 21 20 -20 c24 -24 63 -26 84 -5 23 23 30 97 20 224 l-9 115 -34 23 c-27
18 -48 23 -102 23 -63 0 -69 -2 -74 -22z m133 -148 c4 -100 -4 -150 -22 -150
-22 0 -26 24 -26 137 0 103 0 104 23 101 21 -3 22 -9 25 -88z"/>
<path d="M3274 1727 c-2 -7 -3 -96 -2 -197 l3 -185 83 -3 82 -3 0 40 c0 39 -1
40 -37 43 -37 3 -38 4 -41 46 -3 42 -3 42 31 42 36 0 47 15 39 53 -2 12 -13
17 -38 17 -33 0 -34 1 -34 40 l0 40 40 0 40 0 0 40 0 40 -80 0 c-56 0 -82 -4
-86 -13z"/>
<path d="M3582 1543 l3 -198 40 0 c45 0 43 -9 31 125 -4 41 -4 72 0 68 3 -4
16 -49 28 -100 l22 -93 44 0 45 0 2 145 c2 80 0 168 -3 196 -5 50 -6 52 -37
51 -18 -1 -34 -4 -37 -8 -3 -4 -2 -45 1 -91 3 -45 4 -85 2 -88 -8 -9 -23 27
-33 80 -21 105 -21 105 -68 108 l-42 3 2 -198z"/>
<path d="M1423 1153 c-13 -19 -18 -47 -18 -96 0 -62 3 -71 27 -92 21 -18 33
-22 55 -16 35 9 37 36 3 36 -17 0 -29 9 -38 28 -25 51 4 153 38 132 17 -11 32
5 19 21 -20 24 -66 17 -86 -13z"/>
<path d="M1690 1089 c0 -50 5 -99 10 -109 16 -30 45 -41 74 -30 32 12 48 68
44 158 -3 60 -5 67 -25 70 -22 3 -22 0 -25 -95 -2 -79 -6 -98 -18 -98 -12 0
-16 19 -18 98 -2 89 -4 97 -22 97 -18 0 -20 -7 -20 -91z"/>
<path d="M2190 1166 c0 -7 9 -16 20 -19 18 -5 20 -14 20 -101 0 -89 1 -96 20
-96 19 0 20 7 20 100 0 82 3 100 15 100 8 0 15 7 15 15 0 12 -13 15 -55 15
-40 0 -55 -4 -55 -14z"/>
<path d="M2470 1065 c0 -107 1 -115 19 -115 17 0 20 8 23 47 2 35 7 49 20 51
14 3 17 -6 20 -45 3 -41 6 -48 26 -51 23 -3 23 -3 20 110 -3 105 -4 113 -23
113 -17 0 -20 -8 -23 -48 -3 -39 -6 -48 -20 -45 -13 2 -18 16 -20 51 -3 39 -6
47 -23 47 -18 0 -19 -8 -19 -115z"/>
<path d="M2770 1066 l0 -116 51 0 c36 0 49 4 47 13 -3 6 -17 13 -31 15 -23 3
-27 8 -27 34 0 21 6 31 20 35 26 7 26 33 -1 33 -17 0 -20 5 -17 33 2 27 8 33
31 35 45 5 26 27 -26 30 l-47 3 0 -115z"/>
<path d="M3247 1173 c-12 -11 -8 -21 13 -26 18 -5 20 -14 20 -101 0 -89 1 -96
20 -96 19 0 20 7 20 95 0 76 3 97 15 101 8 4 15 12 15 20 0 10 -14 14 -48 14
-27 0 -52 -3 -55 -7z"/>
<path d="M3520 1065 c0 -115 0 -116 23 -113 19 3 22 10 25 51 3 39 6 48 20 45
13 -2 18 -16 20 -51 3 -39 6 -47 23 -47 18 0 19 8 19 115 0 107 -1 115 -19
115 -17 0 -20 -8 -23 -47 -2 -35 -7 -49 -20 -51 -14 -3 -17 6 -20 45 -3 41 -6
48 -25 51 -23 3 -23 2 -23 -113z"/>
<path d="M3845 1160 c-33 -36 -32 -161 1 -195 22 -22 68 -19 90 6 15 17 19 36
19 94 0 58 -4 77 -19 94 -24 26 -67 27 -91 1z m63 -90 c2 -69 -9 -103 -28 -84
-30 30 -23 158 8 152 14 -3 18 -16 20 -68z"/>
<path d="M4130 1065 c0 -108 1 -115 20 -115 19 0 20 7 20 115 0 108 -1 115
-20 115 -19 0 -20 -7 -20 -115z"/>
</g>
</svg>
